<?xml version="1.0" encoding="utf-8"?>
<!-- Generator: Adobe Illustrator 25.0.0, SVG Export Plug-In . SVG Version: 6.00 Build 0)  -->
<svg version="1.1" id="Layer_1" xmlns="http://www.w3.org/2000/svg" xmlns:xlink="http://www.w3.org/1999/xlink" x="0px" y="0px"
	 viewBox="0 0 841.89 595.28" style="enable-background:new 0 0 841.89 595.28;" xml:space="preserve">
<style type="text/css">
	.st0{fill:#242422;}
	.st1{fill:#E60013;}
	.st2{fill:#FFFFFF;}
</style>
<rect x="200.67" y="252.56" class="st0" width="331.33" height="90.67"/>
<g>
	<path class="st1" d="M480.25,283.15c0,0.57,0.09,1.15,0.31,1.7c1,2.47,3.52,3.98,6.73,2.7c0.77-0.31,22.05-8.87,22.05-8.87
		s-8.38,21.23-8.69,22.03c-1.23,3.04,0.24,5.8,2.74,6.73c0.55,0.2,1.12,0.3,1.69,0.29c2.02-0.01,3.82-1.21,4.7-3.6
		c0.14-0.36,10.61-29.12,10.85-29.82c0.13-0.4,0.38-1.37,0.38-2.04c0-1.42-0.53-2.77-1.54-3.77c-1.01-1.01-2.33-1.53-3.74-1.52
		c-0.68,0-1.24,0.12-2.08,0.39c-0.51,0.16-27.51,10.21-29.82,11.07C481.51,279.28,480.24,281.12,480.25,283.15"/>
	<path class="st2" d="M234.82,303.53l-3.05,9.76h6.14L234.82,303.53z M240.54,322.21l-1.48-4.98h-8.45l-1.49,4.98h-4.75l8.11-23.95
		h4.68l8.13,23.95H240.54z"/>
	<path class="st2" d="M262.95,318.93c-1.55,2.81-4.61,3.76-7.66,3.76c-4.04,0-7.78-1.67-8.96-5.83c-0.28-0.91-0.31-1.83-0.38-2.78
		h4.44c0.07,0.65,0.16,1.25,0.41,1.87c0.77,1.93,2.52,2.74,4.54,2.74c1.53,0,3.83-0.65,3.83-2.55c0-0.41-0.13-0.68-0.3-1.05
		c-0.5-1.02-2.37-1.73-3.36-2.13c-2.03-0.86-4.61-1.78-6.34-3.09c-1.62-1.26-2.44-3.02-2.44-5.06c0-4.6,4.01-7.02,8.2-7.02
		c3.03,0,6.22,1.3,7.54,4.21c0.51,1.08,0.64,2.11,0.71,3.28h-4.44c0.03-2.23-1.8-3.52-3.91-3.52c-1.49,0-3.48,0.82-3.48,2.59
		c0,1.7,2.09,2.3,3.39,2.81c2.04,0.81,4.89,1.73,6.66,2.98c1.76,1.25,2.47,3.05,2.47,5.18
		C263.86,316.58,263.56,317.84,262.95,318.93"/>
	<rect x="267.02" y="298.27" class="st2" width="4.61" height="23.95"/>
	<path class="st2" d="M284.47,303.53l-3.05,9.76h6.14L284.47,303.53z M290.19,322.21l-1.49-4.98h-8.45l-1.49,4.98h-4.74l8.11-23.95
		h4.67l8.14,23.95H290.19z"/>
	<polygon class="st2" points="311.06,322.21 301.03,305.35 301.03,322.21 296.65,322.21 296.65,298.27 301.58,298.27 311.31,315.12 
		311.31,298.27 315.68,298.27 315.68,322.21 	"/>
	<path class="st2" d="M327.84,303.53l-3.05,9.76h6.14L327.84,303.53z M333.57,322.21l-1.49-4.98h-8.45l-1.49,4.98h-4.75l8.11-23.95
		h4.68l8.15,23.95H333.57z"/>
	<path class="st2" d="M359.56,303.51l-3.05,9.77h6.14L359.56,303.51z M365.29,322.2l-1.49-4.99h-8.45l-1.49,4.99h-4.75l8.11-23.94
		h4.69l8.14,23.94H365.29z"/>
	<rect x="372.52" y="298.26" class="st2" width="4.61" height="23.94"/>
	<path class="st2" d="M391.65,302.63c-1.02-0.48-2.45-0.44-3.57-0.44h-2.2v6.92h3.02c2.44,0,4.58-0.67,4.58-3.56
		C393.48,304.22,392.87,303.18,391.65,302.63 M394.09,322.2l-4.89-9.16h-3.32v9.16h-4.62v-23.94h6.49c1.92,0,3.96-0.07,5.8,0.61
		c3.02,1.08,4.64,3.59,4.64,6.76c0,3.04-1.45,5.35-4.24,6.64l5.5,9.93H394.09z"/>
	<polygon class="st2" points="401.75,322.2 401.75,298.26 406.47,298.26 406.47,318.27 416.88,318.27 416.88,322.2 	"/>
	<rect x="419.59" y="298.26" class="st2" width="4.62" height="23.94"/>
	<polygon class="st2" points="442.76,322.2 432.72,305.35 432.72,322.2 428.35,322.2 428.35,298.26 433.27,298.26 443,315.11 
		443,298.26 447.37,298.26 447.37,322.2 	"/>
	<polygon class="st2" points="451.48,322.2 451.48,298.26 466.57,298.26 466.57,302.19 456.09,302.19 456.09,307.82 465.63,307.82 
		465.63,311.75 456.09,311.75 456.09,318.27 466.94,318.27 466.94,322.2 	"/>
	<path class="st2" d="M485.3,318.91c-1.57,2.81-4.62,3.76-7.67,3.76c-4.03,0-7.76-1.67-8.95-5.84c-0.28-0.91-0.31-1.83-0.38-2.78
		h4.44c0.07,0.65,0.17,1.26,0.41,1.87c0.78,1.93,2.54,2.74,4.54,2.74c1.53,0,3.83-0.64,3.83-2.54c0-0.41-0.14-0.68-0.31-1.05
		c-0.51-1.02-2.37-1.74-3.36-2.13c-2.02-0.85-4.61-1.77-6.34-3.09c-1.63-1.25-2.45-3.01-2.45-5.05c0-4.62,4-7.02,8.21-7.02
		c3.03,0,6.21,1.28,7.54,4.2c0.51,1.08,0.64,2.11,0.71,3.29h-4.45c0.04-2.24-1.79-3.53-3.9-3.53c-1.49,0-3.5,0.82-3.5,2.58
		c0,1.7,2.11,2.31,3.39,2.82c2.04,0.81,4.89,1.72,6.65,2.98c1.77,1.25,2.48,3.06,2.48,5.19
		C486.21,316.57,485.91,317.83,485.3,318.91"/>
</g>
</svg>
